<svg width="16" height="16" viewBox="0 0 16 16" fill="none" xmlns="http://www.w3.org/2000/svg">
<g clip-path="url(#clip0)">
<path d="M0.68683 0.788963L0.679108 0.781241L0.671131 0.773783C0.662345 0.765568 0.65618 0.758918 0.65199 0.753974C0.65403 0.744516 0.658156 0.729605 0.666455 0.708818C0.67753 0.684388 0.686483 0.671388 0.69078 0.665864C0.697476 0.664299 0.712344 0.661719 0.737808 0.661719L15.2615 0.661719C15.2615 0.661719 15.2616 0.661719 15.2616 0.661719C15.2874 0.661738 15.3024 0.664369 15.3092 0.665953C15.3135 0.671483 15.3224 0.684502 15.3336 0.708983C15.3418 0.729721 15.346 0.744614 15.348 0.754084C15.3438 0.759005 15.3377 0.765606 15.329 0.773747L15.321 0.781246L15.3132 0.789011L9.71916 6.38309L9.52878 6.57347V6.8427V15.2622C9.52878 15.2875 9.52623 15.3024 9.52467 15.3091C9.51973 15.3129 9.50893 15.3204 9.48953 15.3298C9.46267 15.3389 9.45126 15.3385 9.45246 15.3385C9.43971 15.3385 9.43202 15.3374 9.42838 15.3367C9.42711 15.3365 9.42619 15.3363 9.42555 15.3361C9.42445 15.3358 9.42424 15.3356 9.42466 15.3358C9.42534 15.3361 9.4254 15.3363 9.42435 15.3355C9.42376 15.3351 9.42249 15.3342 9.42058 15.3325C9.41873 15.3309 9.41627 15.3286 9.41324 15.3254L9.40737 15.3192L9.40133 15.3132L6.49709 12.409C6.49704 12.409 6.49698 12.4089 6.49692 12.4089C6.47857 12.3904 6.47452 12.3806 6.47419 12.3798L6.47418 12.3798C6.4738 12.3789 6.47331 12.3776 6.47282 12.3751C6.4723 12.3724 6.47146 12.3668 6.47146 12.3573V6.84266V6.57342L6.28107 6.38304L0.68683 0.788963Z" stroke="#0148C0" stroke-width="1.3"/>
</g>
<defs>
<clipPath id="clip0">
<rect width="16" height="16" fill="white"/>
</clipPath>
</defs>
</svg>
