<svg id="Layer_1" enable-background="new 0 0 512 512" height="512" viewBox="0 0 512 512" width="512" xmlns="http://www.w3.org/2000/svg"><path d="m389 79.2h-26.9v-63.2c0-3.3-2.7-6-6-6-.6 0-1.2.1-1.7.2l-232.6 69c-12.3.7-21.9 10.8-21.9 23.1v376.6c0 12.8 10.4 23.1 23.1 23.1h266c12.8 0 23.1-10.4 23.1-23.1v-376.6c0-12.8-10.4-23.1-23.1-23.1zm-38.9-55.2v55.1h-186zm50 454.9c0 6.1-5 11.1-11.1 11.1h-266c-6.1 0-11.1-5-11.1-11.1v-376.6c0-4 2.1-7.6 5.5-9.6l.1.3 6.1-1.8h265.4c6.1 0 11.1 5 11.1 11.1z" fill="#2862C4" /><path d="m342.5 377.7h-173c-3.3 0-6 2.7-6 6s2.7 6 6 6h173c3.3 0 6-2.7 6-6s-2.7-6-6-6z" fill="#2862C4" /><path d="m295.5 418h-79c-3.3 0-6 2.7-6 6s2.7 6 6 6h79c3.3 0 6-2.7 6-6s-2.7-6-6-6z" fill="#2862C4"/><path d="m256 153.6c-49.8 0-90.3 40.4-90.3 90.3s40.4 90.3 90.3 90.3 90.3-40.4 90.3-90.3c-.1-49.9-40.5-90.3-90.3-90.3zm-27.4 17c-7.4 7.7-13.3 16.6-17.5 26.4-3.7-2.6-7.1-5.4-10.3-8.6 7.9-7.9 17.4-13.9 27.8-17.8zm-35.6 26.9c4.3 4.1 8.9 7.9 13.9 11.1-2.8 9.5-4.4 19.4-4.8 29.3h-24.1c1.1-14.7 6.3-28.6 15-40.4zm-15 52.3h24.1c.4 9.9 2 19.8 4.8 29.3-5 3.2-9.6 6.9-13.9 11.1-8.7-11.8-13.9-25.8-15-40.4zm22.9 49.5c3.2-3.2 6.6-6 10.3-8.6 4.2 9.8 10.1 18.7 17.5 26.4-10.5-3.9-20-10-27.8-17.8zm49.1 19.8c-12.6-7.8-22.3-19.8-28.4-34.6 8.9-4.4 18.6-7 28.4-7.7zm0-54.3c-11.2.7-22.2 3.6-32.3 8.3-2-7.6-3.2-15.4-3.6-23.3h35.9zm0-27h-35.9c.4-7.9 1.6-15.7 3.6-23.3 10.2 4.8 21.1 7.6 32.3 8.3zm0-27c-9.9-.7-19.5-3.4-28.4-7.7 6.2-14.8 15.9-26.7 28.4-34.5zm61.2-22.4c-3.2 3.2-6.6 6.1-10.3 8.6-4.2-9.8-10.1-18.8-17.5-26.5 10.4 4 19.9 10.1 27.8 17.9zm-49.2-19.8c12.6 7.9 22.3 19.8 28.5 34.6-8.9 4.4-18.6 7-28.5 7.7zm0 54.3c11.2-.7 22.2-3.5 32.4-8.3 2 7.6 3.2 15.4 3.6 23.2h-36zm0 26.9h35.9c-.4 7.8-1.5 15.6-3.6 23.2-10.2-4.8-21.2-7.6-32.4-8.3v-14.9zm0 69.3v-42.3c9.9.7 19.6 3.3 28.5 7.7-6.2 14.8-15.9 26.8-28.5 34.6zm21.4-2c7.4-7.7 13.3-16.7 17.5-26.5 3.7 2.6 7.1 5.5 10.3 8.6-7.9 7.9-17.4 14-27.8 17.9zm35.6-26.9c-4.2-4.2-8.9-7.9-13.9-11.1 2.8-9.5 4.4-19.3 4.8-29.2h24.1c-1.1 14.5-6.3 28.5-15 40.3zm-9.1-52.4c-.4-9.9-2-19.7-4.8-29.2 5-3.2 9.6-7 13.9-11.1 8.7 11.8 13.9 25.7 15 40.3z" fill="#2862C4" /></svg>