<svg width="21" height="17" viewBox="0 0 21 17" fill="none" xmlns="http://www.w3.org/2000/svg">
<path fill-rule="evenodd" clip-rule="evenodd" d="M6.51154 0H4.51091C3.95848 0 3.51059 0.447948 3.51059 1.00042H1.50996C0.957527 1.00042 0.509644 1.44828 0.509644 2.00075C0.509644 2.55329 0.957527 3.00117 1.50996 3.00117H3.51059C3.51059 3.55364 3.95848 4.0015 4.51091 4.0015H6.51154C7.064 4.0015 7.51186 3.55364 7.51186 3.00117V1.00042C7.51186 0.447948 7.064 0 6.51154 0ZM19.5157 1.00042H9.51251V3.00117H19.5157C20.0681 3.00117 20.516 2.55329 20.516 2.00075C20.516 1.44828 20.0681 1.00042 19.5157 1.00042ZM1.50996 7.00267H6.51154V9.00342H1.50996C0.957527 9.00342 0.509644 8.55554 0.509644 8.003C0.509644 7.45053 0.957527 7.00267 1.50996 7.00267ZM14.5141 9.00342V7.00267H19.5157C20.0681 7.00267 20.516 7.45053 20.516 8.003C20.516 8.55554 20.0681 9.00342 19.5157 9.00342H14.5141ZM19.5157 13.0049L17.515 13.0049C17.515 12.4524 17.0672 12.0045 16.5147 12.0045H14.5141C13.9616 12.0045 13.5138 12.4524 13.5138 13.0049V15.0057C13.5138 15.5581 13.9616 16.0061 14.5141 16.0061H16.5147C17.0672 16.0061 17.515 15.5581 17.515 15.0057L19.5157 15.0057C20.0681 15.0057 20.516 14.5578 20.516 14.0053C20.516 13.4528 20.0681 13.0049 19.5157 13.0049ZM1.50996 13.0049H11.5131V15.0057H1.50996C0.957527 15.0057 0.509644 14.5578 0.509644 14.0053C0.509644 13.4528 0.957527 13.0049 1.50996 13.0049ZM9.51251 6.00225H11.5131C12.0656 6.00225 12.5135 6.4502 12.5135 7.00267V9.00342C12.5135 9.55588 12.0656 10.0037 11.5131 10.0037H9.51251C8.96006 10.0037 8.51218 9.55588 8.51218 9.00342V7.00267C8.51218 6.4502 8.96006 6.00225 9.51251 6.00225Z" fill="#EEEEEE"/>
</svg>
