<svg width="16" height="16" viewBox="0 0 16 16" fill="none" xmlns="http://www.w3.org/2000/svg">
<path d="M7.97371 8.93259C10.3383 8.93259 12.2561 7.01468 12.2561 4.65017C12.2561 2.28565 10.3382 0.380859 7.97371 0.380859C5.60919 0.380859 3.69128 2.29877 3.69128 4.65017C3.69128 7.00156 5.60917 8.93259 7.97371 8.93259ZM7.97371 1.49745C9.70769 1.49745 11.1264 2.91616 11.1264 4.65017C11.1264 6.38418 9.70769 7.80286 7.97371 7.80286C6.23973 7.80286 4.82099 6.38415 4.82099 4.65014C4.82099 2.91613 6.2397 1.49745 7.97371 1.49745Z" fill="#0148C0"/>
<path d="M0.564855 15.6193H15.4351C15.7504 15.6193 16 15.3697 16 15.0544C16 12.0987 13.5961 9.68164 10.6273 9.68164H5.37275C2.41708 9.68164 0 12.0856 0 15.0544C0 15.3697 0.249586 15.6193 0.564855 15.6193ZM5.37275 10.8114H10.6273C12.7816 10.8114 14.555 12.414 14.8309 14.4895H1.16912C1.44498 12.4272 3.2184 10.8114 5.37275 10.8114Z" fill="#0148C0"/>
</svg>
