<svg width="34" height="34" viewBox="0 0 34 34" fill="none" xmlns="http://www.w3.org/2000/svg">
<path fill-rule="evenodd" clip-rule="evenodd" d="M29.0417 19.8333C30.2154 19.8333 31.1667 18.8819 31.1667 17.7083C31.1667 16.5346 30.2154 15.5833 29.0417 15.5833C27.8681 15.5833 26.9167 16.5346 26.9167 17.7083C26.9167 18.8819 27.8681 19.8333 29.0417 19.8333Z" fill="#81FEC6"/>
<rect x="3.40112" y="7.71899" width="25.5" height="9.91667" rx="1" transform="rotate(-15 3.40112 7.71899)" fill="#81FEC6"/>
<path fill-rule="evenodd" clip-rule="evenodd" d="M4.83325 5.66675C3.72868 5.66675 2.83325 6.56218 2.83325 7.66675V26.3334C2.83325 27.438 3.72868 28.3334 4.83325 28.3334H29.1666C30.2712 28.3334 31.1666 27.438 31.1666 26.3334V22.1896C30.5225 22.4956 29.8021 22.6667 29.0416 22.6667C26.3032 22.6667 24.0833 20.4468 24.0833 17.7084C24.0833 14.97 26.3032 12.7501 29.0416 12.7501C29.8021 12.7501 30.5225 12.9213 31.1666 13.2272V7.66675C31.1666 6.56218 30.2712 5.66675 29.1666 5.66675H4.83325Z" fill="#96ADFF"/>
</svg>
