<svg width="20" height="16" viewBox="0 0 20 16" fill="none" xmlns="http://www.w3.org/2000/svg">
<path fill-rule="evenodd" clip-rule="evenodd" d="M2.90905 0.641724H18.0076C18.56 0.641724 19.0079 1.08959 19.0079 1.64213V1.73585C19.0079 2.2884 18.56 2.73626 18.0076 2.73626H2.90905C2.35652 2.73626 1.90874 2.2884 1.90874 1.73585V1.64213C1.90874 1.08959 2.35652 0.641724 2.90905 0.641724ZM1.88137 15.2869C2.048 15.5709 2.38625 15.6967 2.69286 15.6108C2.88161 15.6754 3.09678 15.6619 3.28346 15.556L9.45069 12.0536C9.7913 11.8601 9.90794 11.4315 9.71133 11.0966L9.35525 10.4901C9.15864 10.155 8.72306 10.0402 8.38246 10.2335L3.13221 13.2152L1.95117 11.203C1.75455 10.868 1.319 10.7532 0.978465 10.9466L0.36167 11.2968C0.0210571 11.4903 -0.0956455 11.9188 0.101053 12.2537L1.88137 15.2869ZM18.0076 6.23755H2.90905C2.35652 6.23755 1.90874 6.68543 1.90874 7.23798V7.34733C1.90874 7.89989 2.35652 8.34775 2.90905 8.34775H18.0076C18.56 8.34775 19.0079 7.89989 19.0079 7.34733V7.23798C19.0079 6.68543 18.56 6.23755 18.0076 6.23755ZM18.0076 11.849H12.881C12.3285 11.849 11.8806 12.2969 11.8806 12.8495V12.9432C11.8806 13.4957 12.3285 13.9436 12.881 13.9436H18.0076C18.56 13.9436 19.0079 13.4957 19.0079 12.9432V12.8495C19.0079 12.2969 18.56 11.849 18.0076 11.849Z" fill="white"/>
</svg>
