<svg height="512" viewBox="0 0 58 60" width="512" xmlns="http://www.w3.org/2000/svg"><g id="007---Gorbachev" fill="none"><g id="Icons"><path id="Shape" d="m12.6 7.52c-1.2430163 2.12115891-1.8827257 4.5416807-1.85 7 0 5.53 1.22 1.83-.52 7.14-.51 1.61-1.13 3.17-1.17 3.27s-3.27-2.93-5.74-1.66c-.38510907.1857671-.72605983.4517087-1 .78-2.23-5.43 1-14.44 3.34-15.86.81072194-.46518167 1.71016337-.75477455 2.64-.85 1.4339975-.16328066 2.8846654-.10255503 4.3.18z" fill="#707070"/><path id="Shape" d="m55.62 24.05c-.6475178-.8015849-1.670672-1.2009574-2.69-1.05-1.4831378.2520176-2.8675805.909628-4 1.9h-.27c-.77-1.86-1.78-5.11-2.06-6.07s.4-.83.4-4.36c.0317101-2.4581941-.6079284-4.87844817-1.85-7h.27c.4057965-.08586385.8166161-.14598379 1.23-.18.62 0 3.57-.44 5.66.85 2.27 1.47 5.54 10.48 3.31 15.91z" fill="#707070"/><path id="Shape" d="m53 23h-.09c-.5100048.0614532-1.0084741.1961747-1.48.4-.7605797.3195958-1.4765406.7363993-2.13 1.24-.47.31-.17.26-.6.26-.77-1.86-1.78-5.11-2.06-6.07s.36-.83.36-4.36c.0342551-2.4585074-.605561-4.87943317-1.85-7h.27c.4057965-.08586385.8166161-.14598379 1.23-.18.9351004.10017615 1.8400845.38936282 2.66.85 2.12 1.38 5.13 9.36 3.69 14.86z" fill="#9e9e9e"/><path id="Shape" d="m9.06 24.88c-.14481836.3928313-.332626.7684466-.56 1.12-1.1471936 1.8218634-1.20097109 4.1266128-.14 6-1.17000295 1.9533175-1.79823212 4.1831859-1.82 6.46-1.44 2.06-2.71 1.67-3.49.62s-1-2.75-.55-3.37c1-1.24-3-5.36-.88-10.41.30319647-.8646903.90635231-1.5920253 1.7-2.05 2.47-1.25 5.68 1.63 5.74 1.63z" fill="#ffe0b2"/><path id="Shape" d="m55.49 35.73c1 1.25-1.14 6.84-4 2.74h-.33c-.0273337-2.2548862-.6407523-4.4638824-1.78-6.41 1.077571-1.8915387 1.0198346-4.2240902-.15-6.06-.2150916-.3568815-.3991025-.7315946-.55-1.12h.32c.8148916-.6784486 1.7331888-1.2219995 2.72-1.61 1.63-.59 3.6-.58 4.7 2.05 2.07 5.05-1.94 9.17-.93 10.41z" fill="#ffe0b2"/><path id="Shape" d="m50.07 42.26c-2.75 4.66-7.31 8.28-8.31 10.3s-5.6 6.44-12.92 6.44c-.51 0-1 0-1.5 0-6.45-.41-10.51-4.53-11.43-6.41s-5.55-5.64-8.31-10.3c-.70981326-1.2124203-1.07624317-2.5951747-1.06-4 .06529782-2.216791.69146568-4.3808546 1.82-6.29-1.06097109-1.8733872-1.0071936-4.1781366.14-6 .71-1 2.28-6 2.62-7.19.24-.79-.37-.85-.37-4.34-.0317101-2.4581941.6079284-4.87844817 1.85-7 3-5.13 8.74-6.11 14.76-6.44.55 0 1.4-.08 1.53-.08 4.48.1 10 .57 13.57 3.45 2.9457798 2.47495661 4.6085029 6.1535476 4.52 10 0 3.54-.6 3.52-.36 4.34.38 1.26 1.89 6.26 2.61 7.26 1.157348 1.843382 1.1996862 4.1758302.11 6.06.3.51 3.35 5.77.73 10.2z" fill="#dfc49c"/><path id="Shape" d="m47.07 42.26c-2.75 4.66-7.31 8.28-8.31 10.3s-5 6-11.42 6.41c-6.45-.41-10.51-4.53-11.43-6.41s-5.55-5.64-8.31-10.3c-.70981326-1.2124203-1.07624317-2.5951747-1.06-4 .07032536-2.2065569.69631643-4.359691 1.82-6.26-1.06097109-1.8733872-1.0071936-4.1781366.14-6 .71-1 2.28-6 2.62-7.19.24-.79-.37-.85-.37-4.34-.0851399-3.8436105 1.5726923-7.51951339 4.51-10 3.25-2.57 7.94-3.14 12.1-3.37 4.16.23 8.87.8 12.1 3.37 3.72 3 5.07 7.91 4.36 12.68-.1856892.5393343-.253881 1.1121454-.2 1.68.38 1.17 1.89 6.17 2.61 7.17 1.157348 1.843382 1.1996862 4.1758302.11 6.06.3.51 3.35 5.77.73 10.2z" fill="#ffe0b2"/><path id="Shape" d="m31 1.12c-3.59.14-3.47 2.41-5.3 3.77s.74 2.41-.62 5.94-3.36 3.06-3.36 3.06 1.17-2.71.16-3.7c-1.7-1.65-6.06 1.87-6.06.7s3.29-3.46 4.68-4.39 0-4.09 0-4.09l-.08-.41c2.7554595-.6561446 5.5775075-.99170322 8.41-1 .29 0 1.71.09 2.17.12z" fill="#ef314c"/><path id="Shape" d="m55.49 35.73c1 1.18-.91 6.21-3.54 3.37.76-1 1-2.75.54-3.37-1-1.24 3-5.36.88-10.41-.3031965-.8646903-.9063523-1.5920253-1.7-2.05 1.63-.59 3.6-.58 4.7 2.05 2.12 5.05-1.89 9.17-.88 10.41z" fill="#dfc49c"/></g><g id="Layer_10" fill="#000" transform="translate(-1)"><path id="Shape" d="m15.32 26.92c.2452731.102641.5213244.1033783.7671422.0020488.2458179-.1013295.4411618-.2963823.5428578-.5420488 0 0 .85-1.94 3.75-1.56 1.3515603.0925067 2.6823174.3822411 3.95.86.2825711.2354486.6715841.2967744 1.0128853.1596761.3413011-.1370984.5797932-.4504887.6209691-.8159843.0411759-.3654955-.1216114-.7240931-.4238544-.9336918-.28-.22-1.33-.77-4.9-1.25s-5.37 1.61-5.86 2.77c-.102641.2452731-.1033783.5213244-.0020488.7671422.1013295.2458179.2963823.4411618.5420488.5428578z"/><path id="Shape" d="m38.57 22.84c-3.73.48-4.81 1-5.1 1.23-.2258541.1516795-.3801591.3888333-.4273315.6567726-.0471724.2679394.0168601.5435329.1773315.7632274.3171464.4364825.9233651.5426814 1.37.24 0 0 .87-.48 4.23-.91 3-.39 4 1.49 4 1.59.1464789.326898.456229.5508187.8125704.5874132.3563414.0365946.7051375-.1196965.915-.41.2098626-.2903034.2489085-.6705152.1024296-.9974132-.05-.13-1.51-3.33-6.08-2.75z"/><path id="Shape" d="m33.8 30c.0353313-.5243166.1711288-1.0369523.4-1.51.1482652-.3251117.1118229-.7046258-.0955995-.9955831-.2074223-.2909573-.5543124-.4491544-.91-.415-.3556875.0341544-.6661353.2554714-.8144005.5805831-2 4.39 1.89 5.18 1.68 7.39.00572.2449246-.1152345.4754941-.32.61-.58.41-2 .42-3.49 0-.1642822-.0398706-.3357178-.0398706-.5 0-1.51.39-2.91.38-3.49 0s-.23-1.48.2-2.16c.92-1.42 2.65-2.58 1.16-5.84-.1482652-.3251117-.458713-.5464287-.8144005-.5805831-.3556876-.0341544-.7025777.1240427-.91.415-.2074224.2909573-.2438647.6704714-.0955995.9955831.95 2.1.05 2.27-1 3.93-2.1 3.27-.28 6.55 5.22 5.27 2.79.65 5.79.31 6-2.45.27-2.54-2.28-4.17-2.22-5.24z"/><path id="Shape" d="m2.67 35.18c-1.43 2 1 7.29 4.16 5.38 1.17 4.67 8.17 10.37 9.17 12.44 1.14 2.32 5.87 7 13.29 7h.51c7.77.21 12.68-4.61 13.85-7 1-2 8.13-7.91 9.23-12.62 3.28 2.4 5.94-3.15 4.43-5.2 0-1.24 3-5.4 1-10.25-.1508251-.3692738-.3349164-.7240679-.55-1.06 1.97-5.87-1.33-14.87-3.94-16.53-2.44-1.51-6-1.08-7.21-.88-3.61-5.46-9.94-6.16-16.68-6.46h-.14c-6.6.3-13 1-16.67 6.42-1.4-.21-4.66-.49-6.94.92-2.61 1.66-5.91 10.66-3.92 16.53-.21848438.3355853-.40592645.6903863-.56 1.06-2.03 4.86.98 9 .97 10.25zm2.57 3.7c-.72799065-.6197516-1.10236437-1.5594297-1-2.51 1.76-2.06-2.75-5.76-.7-10.67.2327446-.8059873.85131781-1.4433051 1.65-1.7 1.19-.28 2.71.55 3.63 1.19-.84828817 1.231218-1.26978989 2.706474-1.2 4.2-.52572097-.1834337-1.06839661-.3140779-1.62-.39-.35726559-.0464445-.71217048.1012379-.93102542.3874167s-.26841066.6673767-.13 1 .44375982.5661388.80102542.6125833c.74601898.0754769 1.46461129.3218514 2.1.72-.15455439.3235674-.12403024.7051194.08 1-.82176256 1.7028865-1.2749672 3.5600033-1.33 5.45-.41.43-.94.96-1.35.71zm50.46-2.54c.1183.9613792-.2580479 1.9173028-1 2.54-.48.29-1.13-.49-1.48-1-.0483886-.0550259-.1019698-.1052583-.16-.15-.0978463-1.6305149-.4802815-3.2313277-1.13-4.73.4532447-.2508781.6398528-.8063626.43-1.28.6346016-.3997962 1.3535915-.646307 2.1-.72.5522847-.0745584.9395584-.5827153.865-1.135s-.5827153-.9395584-1.135-.865c-.7215959.0989191-1.427419.2904997-2.1.57.1171642-1.4513672-.2332629-2.9021355-1-4.14l-.09-.1c.88-.65 2.55-1.62 3.81-1.32.7982111.2516316 1.4175566.8859915 1.65 1.69 2.04 4.89-2.4 8.64-.76 10.64zm-2.94-27.34c1.69 1 4.48 8.26 3.33 13.32-1.9-.94-4.12-.12-5.89 1.08-.78-2.09-1.61-4.88-1.62-4.91.0364597-.4230708.1134802-.8416603.23-1.25.4962621-3.0471559.1003454-6.1728144-1.14-9 1.45-.07 3.67-.08 5.09.76zm-27.49-1.7c.3663805 1.03774037.334307 2.17456743-.09 3.19-.2155478.5971155-.522541 1.157125-.91 1.66.32-2.49-1.17-4.2-4.73-3 .6-.49 1.43-1.1 2.54-1.85 1.58-1 1.07-3.36.64-4.6 1.6802402-.32820076 3.3808119-.5420251 5.09-.64-.4694098.73492827-1.0306006 1.40701302-1.67 2-1.063424.70760981-1.4359312 2.09487814-.87 3.24zm-8.39-2.07c1.1691961-.89569994 2.490338-1.57320858 3.9-2 .39 1.08.49 2.23.19 2.43-4.51 3-5.12 4.33-5.12 5.22.0037113.3996432.2013615.7725682.53 1 .67.44 1.44.12 2.59-.37 1-.41 2.72-1.16 3.24-.65.25.25.06 1.55-.38 2.58-.1264089.269234-.1264089.580766 0 .85.218919.3979111.6598737.6203748 1.11.56.86 0 2.8-.4 4.07-3.71.5862381-1.4124489.6430514-2.98901815.16-4.44-.4-1.43-.11-.23 1.73-2.83.6018778-1.18572206 1.8531766-1.89793926 3.18-1.81 4 .28 8 .92 10.73 3.1 2.7435618 2.30181805 4.2864405 5.7300284 4.19 9.31.0253645.975822-.0551054 1.951519-.24 2.91-.1858885.5547772-.2135901 1.1503634-.08 1.72.42 1.4 1.93 6.27 2.76 7.48.912154 1.5418629.912154 3.4581371 0 5-.1786328.3094011-.1786328.6905989 0 1 .51.87 3 5.41.73 9.18-2.66 4.5-7.27 8.18-8.35 10.37-.94 1.92-5.31 6.06-12 5.87-6.76.2-11.06-4-12-5.87-1.08-2.13-5.69-5.87-8.36-10.38-.61952395-1.0611796-.9376237-2.2713416-.92-3.5.07652867-2.0089007.65034051-3.9674201 1.67-5.7.1786328-.3094011.1786328-.6905989 0-1-.88174675-1.5391368-.8549166-3.436412.07-4.95.7381409-1.4317978 1.3439899-2.9280105 1.81-4.47 1.92-5.87.63-2.39.63-7.65-.083982-3.5538699 1.4454736-6.95470254 4.16-9.25zm-9.65 3.77c1.50382378-.72253893 3.1899662-.97685379 4.84-.73-.8842701 1.9323978-1.3348151 4.034941-1.32 6.16 0 3.54.54 3.63.41 4-.55 1.84-1.06 3.39-1.57 4.78-1.73-1.12-3.85-1.85-5.69-.94-1.14-4.97 1.65-12.19 3.33-13.27z"/><path id="Shape" d="m24.46 19.13h9.92c.5522847 0 1-.4477153 1-1s-.4477153-1-1-1h-9.92c-.5522847 0-1 .4477153-1 1s.4477153 1 1 1z"/><path id="Shape" d="m30.94 14.18h1.51c.5522847 0 1-.4477153 1-1s-.4477153-1-1-1h-1.51c-.5522847 0-1 .4477153-1 1s.4477153 1 1 1z"/><path id="Shape" d="m36 14.18h6.16c.5522847 0 1-.4477153 1-1s-.4477153-1-1-1h-6.16c-.5522847 0-1 .4477153-1 1s.4477153 1 1 1z"/><path id="Shape" d="m34.05 41.86h-8.05c-.5522847 0-1 .4477153-1 1s.4477153 1 1 1h8.1c.5522847 0 1-.4477153 1-1s-.4477153-1-1-1z"/><path id="Shape" d="m21.89 27h-3c-.5522847 0-1 .4477153-1 1s.4477153 1 1 1h3c.5522847 0 1-.4477153 1-1s-.4477153-1-1-1z"/><path id="Shape" d="m41.15 27h-3c-.5522847 0-1 .4477153-1 1s.4477153 1 1 1h3c.5522847 0 1-.4477153 1-1s-.4477153-1-1-1z"/><path id="Shape" d="m31 47.8h-2c-.5522847 0-1 .4477153-1 1s.4477153 1 1 1h2c.5522847 0 1-.4477153 1-1s-.4477153-1-1-1z"/></g></g></svg>