<svg width="15" height="15" viewBox="0 0 512 512" fill="none" xmlns="http://www.w3.org/2000/svg">
<path d="M501.524 73.1581L438.758 10.4561C424.815 -3.47287 402.137 -3.46287 388.204 10.4761L52.631 346.202C42.145 356.678 34.137 369.648 29.474 383.713L29.175 384.615L0 511.984L127.485 482.865L128.385 482.567C142.461 477.912 155.443 469.916 165.941 459.431L501.546 123.674C508.292 116.924 512.005 107.952 512.001 98.4111C511.996 88.8721 508.276 79.9031 501.524 73.1581ZM53.208 458.809L65.124 406.785L105.292 446.912L53.208 458.809ZM141.879 426.935L85.137 370.251L362.519 92.7431L419.261 149.427L141.879 426.935ZM447.533 121.143L390.79 64.4591L413.493 41.7461L470.236 98.4301L447.533 121.143Z" fill="black"/>
</svg>
