<svg xmlns="http://www.w3.org/2000/svg" xmlns:xlink="http://www.w3.org/1999/xlink" width="370.146" height="206.223" viewBox="0 0 370.146 206.223">
  <defs>
    <linearGradient id="linear-gradient" y1="1" x2="1" gradientUnits="objectBoundingBox">
      <stop offset="0" stop-color="#1a73cc"/>
      <stop offset="1" stop-color="#132bc5"/>
    </linearGradient>
  </defs>
  <g id="Type" transform="translate(-10.207 -154)">
    <path id="Path_3" data-name="Path 3" d="M62.641-54.718H75L74.87-9.244H60.7L44.933-32.967,44.9-9.244H30.7L.561-54.718h14.6L30.832-30.327l1.5,3.675h.3V-54.718h12.53L60.837-30.327l1.537,3.675h.3ZM82.054-32.031a22.765,22.765,0,0,1,.885-6.365,22.767,22.767,0,0,1,2.523-5.7A24.185,24.185,0,0,1,89.388-48.9a24.76,24.76,0,0,1,5.062-3.709A26.11,26.11,0,0,1,100.431-55a25.921,25.921,0,0,1,6.683-.852,25.79,25.79,0,0,1,6.649.852,26.111,26.111,0,0,1,5.981,2.389,24.76,24.76,0,0,1,5.062,3.709,24.185,24.185,0,0,1,3.926,4.811,23.221,23.221,0,0,1,2.539,5.7,22.373,22.373,0,0,1,.9,6.365,22.2,22.2,0,0,1-.9,6.348,23.6,23.6,0,0,1-2.539,5.7,24.382,24.382,0,0,1-3.926,4.845,24.914,24.914,0,0,1-5.062,3.742,25.655,25.655,0,0,1-5.981,2.406,25.79,25.79,0,0,1-6.649.852,25.921,25.921,0,0,1-6.683-.852A25.655,25.655,0,0,1,94.45-11.4a24.914,24.914,0,0,1-5.062-3.742,24.382,24.382,0,0,1-3.926-4.845,23.129,23.129,0,0,1-2.523-5.7A22.591,22.591,0,0,1,82.054-32.031ZM94.617-32a14.048,14.048,0,0,0,.986,5.313,13.4,13.4,0,0,0,2.673,4.227,12.323,12.323,0,0,0,3.959,2.807,11.782,11.782,0,0,0,4.878,1.019,11.9,11.9,0,0,0,4.895-1.019,12.273,12.273,0,0,0,3.976-2.807,13.164,13.164,0,0,0,2.656-4.227A14.262,14.262,0,0,0,119.61-32a14.262,14.262,0,0,0-.969-5.313,13.165,13.165,0,0,0-2.656-4.227,12.273,12.273,0,0,0-3.976-2.807,11.9,11.9,0,0,0-4.895-1.019,11.782,11.782,0,0,0-4.878,1.019,12.323,12.323,0,0,0-3.959,2.807A13.4,13.4,0,0,0,95.6-37.31,14.048,14.048,0,0,0,94.617-32Zm61.513,8.687h-4.21V-9.244h-12.6V-54.685h20.215a19.457,19.457,0,0,1,6.816,1.153,16.109,16.109,0,0,1,5.363,3.224,14.462,14.462,0,0,1,3.508,4.962,15.92,15.92,0,0,1,1.253,6.4,16.746,16.746,0,0,1-.568,4.444,15.3,15.3,0,0,1-1.6,3.809,13.839,13.839,0,0,1-2.523,3.107,14.766,14.766,0,0,1-3.325,2.305l9.155,16.038h-14.4ZM158.97-33.8a5,5,0,0,0,1.9-.368,4.706,4.706,0,0,0,1.57-1.036,4.8,4.8,0,0,0,1.053-1.621,5.623,5.623,0,0,0,.384-2.122,5.568,5.568,0,0,0-.384-2.072,5.139,5.139,0,0,0-1.053-1.671,4.939,4.939,0,0,0-1.554-1.1,4.523,4.523,0,0,0-1.888-.4H151.92V-33.8Zm36.988-.568,15.1-20.315h14.6L209.958-34.4,226.2-9.244H211.361l-9.623-16.138-5.78,7.618v8.52h-12.6V-54.685h12.6Zm35.016-20.315h32.811v10.492H243.571v7.251h17.241v10.458H243.571v6.749h20.515V-9.244H230.974Zm58.973,34.95q5.914,0,9-3.057t3.091-9.072a16.846,16.846,0,0,0-.735-5.162,9.976,9.976,0,0,0-2.239-3.876,9.727,9.727,0,0,0-3.776-2.422,15.486,15.486,0,0,0-5.346-.835h-6.415v24.425Zm-19.012-34.95h19.179a31.1,31.1,0,0,1,9.656,1.453,21.969,21.969,0,0,1,7.768,4.327,20.2,20.2,0,0,1,5.179,7.117A23.877,23.877,0,0,1,314.606-32a25.762,25.762,0,0,1-1.6,9.272,19.487,19.487,0,0,1-4.711,7.184A21.435,21.435,0,0,1,300.64-10.9a30.382,30.382,0,0,1-10.425,1.654H270.936Zm49.651,22.654a22.764,22.764,0,0,1,.885-6.365,22.767,22.767,0,0,1,2.523-5.7,24.187,24.187,0,0,1,3.926-4.811,24.761,24.761,0,0,1,5.062-3.709A26.109,26.109,0,0,1,338.964-55a25.921,25.921,0,0,1,6.683-.852A25.79,25.79,0,0,1,352.3-55a26.11,26.11,0,0,1,5.981,2.389,24.761,24.761,0,0,1,5.062,3.709,24.184,24.184,0,0,1,3.926,4.811,23.222,23.222,0,0,1,2.539,5.7,22.373,22.373,0,0,1,.9,6.365,22.2,22.2,0,0,1-.9,6.348,23.6,23.6,0,0,1-2.539,5.7,24.381,24.381,0,0,1-3.926,4.845,24.915,24.915,0,0,1-5.062,3.742A25.655,25.655,0,0,1,352.3-8.993a25.79,25.79,0,0,1-6.649.852,25.921,25.921,0,0,1-6.683-.852,25.654,25.654,0,0,1-5.981-2.406,24.915,24.915,0,0,1-5.062-3.742A24.383,24.383,0,0,1,324-19.986a23.129,23.129,0,0,1-2.523-5.7A22.589,22.589,0,0,1,320.587-32.031ZM333.15-32a14.048,14.048,0,0,0,.986,5.313,13.4,13.4,0,0,0,2.673,4.227,12.324,12.324,0,0,0,3.959,2.807,11.782,11.782,0,0,0,4.878,1.019,11.9,11.9,0,0,0,4.895-1.019,12.273,12.273,0,0,0,3.976-2.807,13.164,13.164,0,0,0,2.656-4.227A14.261,14.261,0,0,0,358.143-32a14.261,14.261,0,0,0-.969-5.313,13.164,13.164,0,0,0-2.656-4.227,12.273,12.273,0,0,0-3.976-2.807,11.9,11.9,0,0,0-4.895-1.019,11.782,11.782,0,0,0-4.878,1.019,12.324,12.324,0,0,0-3.959,2.807,13.4,13.4,0,0,0-2.673,4.227A14.048,14.048,0,0,0,333.15-32Z" transform="translate(9.647 368.364)" fill="url(#linear-gradient)"/>
    <path id="Path_2" data-name="Path 2" d="M330.037-91.477a67.9,67.9,0,0,0-14.048-20.669,66.7,66.7,0,0,0-20.507-13.887,62.561,62.561,0,0,0-25.029-5.167H215.779l-11.6,21.638h66.275a44.22,44.22,0,0,1,16.632,3.23,45.019,45.019,0,0,1,13.725,9.366,44.13,44.13,0,0,1,9.366,13.725,41.976,41.976,0,0,1,3.391,16.632,41.976,41.976,0,0,1-3.391,16.632,46.565,46.565,0,0,1-9.2,13.725,42.334,42.334,0,0,1-13.725,9.366c-5.167,2.1-16.794,3.23-16.794,3.23H160.2L147.786-2.019H270.452a61.993,61.993,0,0,0,25.029-5.167A65.557,65.557,0,0,0,316.15-21.073a70.441,70.441,0,0,0,13.887-20.669,61.117,61.117,0,0,0,5.006-24.867A61.117,61.117,0,0,0,330.037-91.477Z" transform="translate(39.172 285.2)" fill="url(#linear-gradient)"/>
    <path id="Path_1" data-name="Path 1" d="M24.06-131.2H0L52.641-26.079,64.752-50.3Zm142.086,0L125.615-50.3,97.034-107.14,84.923-82.919l40.692,80.9L190.206-131.2Z" transform="translate(16.883 285.2)" fill="url(#linear-gradient)"/>
  </g>
</svg>
